<?xml version="1.0" encoding="UTF-8"?><svg id="a" xmlns="http://www.w3.org/2000/svg" viewBox="0 0 80.85 26.93"><defs><style>.b{fill:#065caa;}</style></defs><rect class="b" x="24.75" y="5.64" width="6" height="16.76"/><path class="b" d="M9.64,6.41s4.35-1.42,6.41,2.52h6.41S21,.83,11.88,0c0,0-8.29-.41-11.17,7.88-4.83,12.89,16.39,23.17,21.75,6h-6.23c-4.36,7.85-15.8-1.63-6.59-7.46Z"/><rect class="b" x="24.75" y=".23" width="6" height="3.71"/><path class="b" d="M50.39,9.12c-4.03-4.7-7.56-4.48-10.94-1.88v-1.6h-5.82V26.93h5.82v-6.23c2.82,3.84,9.64,.59,10.12-.6,3.99-4.38,2.08-9.16,.82-10.99Zm-6.18,7.88c-4.03,2.16-6.89-4.64-2.52-6,3.65-1.44,6.18,4.19,2.52,6Z"/><path class="b" d="M74.85,5.64v1.6c-5.62-4.81-12.76,1.83-12.64,6.64,0,8.36,9.68,10.62,12.64,7.05v1.47h6V5.64h-6Zm-.82,10.53c-2.47,3.23-7.82-.62-5.4-3.94,2.59-3.79,8.13,.56,5.4,3.94Z"/><rect class="b" x="54.15" y=".23" width="6" height="22.16"/></svg>